<svg xmlns="http://www.w3.org/2000/svg" style="display:none">
  <symbol id="people" viewBox="0 0 24 24"><path d="M8 11a4 4 0 1 1 0-8 4 4 0 0 1 0 8Zm8-1a3.5 3.5 0 1 1 0-7 3.5 3.5 0 0 1 0 7ZM2 21c.8-4 3.2-6 6-6s5.2 2 6 6M12 21c.6-3.2 2.4-5 4.8-5 2.2 0 4.1 1.6 4.8 5" fill="none" stroke="currentColor" stroke-width="1.8" stroke-linecap="round"/></symbol>
  <symbol id="location" viewBox="0 0 24 24"><path d="M12 22s7-6.5 7-13a7 7 0 0 0-14 0c0 6.5 7 13 7 13Z" fill="none" stroke="currentColor" stroke-width="1.8"/><circle cx="12" cy="9" r="2.5" fill="none" stroke="currentColor" stroke-width="1.8"/></symbol>
  <symbol id="briefcase" viewBox="0 0 24 24"><path d="M9 7V5h6v2M4 7h16v13H4V7Z" fill="none" stroke="currentColor" stroke-width="1.8" stroke-linejoin="round"/><path d="M4 12h16" stroke="currentColor" stroke-width="1.8"/></symbol>
  <symbol id="shield" viewBox="0 0 24 24"><path d="M12 22s8-4 8-11V5l-8-3-8 3v6c0 7 8 11 8 11Z" fill="none" stroke="currentColor" stroke-width="1.8"/><path d="m8.5 12 2.2 2.2 4.8-5" fill="none" stroke="currentColor" stroke-width="1.8" stroke-linecap="round"/></symbol>
  <symbol id="document" viewBox="0 0 24 24"><path d="M6 2h8l4 4v16H6V2Z" fill="none" stroke="currentColor" stroke-width="1.8"/><path d="M14 2v5h5M9 12h6M9 16h6" stroke="currentColor" stroke-width="1.8" stroke-linecap="round"/></symbol>
  <symbol id="truck" viewBox="0 0 24 24"><path d="M3 6h12v10H3V6Zm12 4h4l2 3v3h-6v-6Z" fill="none" stroke="currentColor" stroke-width="1.8"/><circle cx="7" cy="18" r="2" fill="none" stroke="currentColor" stroke-width="1.8"/><circle cx="18" cy="18" r="2" fill="none" stroke="currentColor" stroke-width="1.8"/></symbol>
</svg>