<svg xmlns="http://www.w3.org/2000/svg" width="1800" height="1000" viewBox="0 0 1800 1000">
<defs>
<linearGradient id="g" x1="0" y1="0" x2="1" y2="1"><stop stop-color="#06101a"/><stop offset=".55" stop-color="#152536"/><stop offset="1" stop-color="#07111c"/></linearGradient>
<radialGradient id="r" cx=".82" cy=".18" r=".55"><stop stop-color="#2e86c9" stop-opacity=".45"/><stop offset=".55" stop-color="#0e4f83" stop-opacity=".08"/><stop offset="1" stop-color="#000" stop-opacity="0"/></radialGradient>
<filter id="blur"><feGaussianBlur stdDeviation="12"/></filter>
</defs>
<rect width="1800" height="1000" fill="url(#g)"/>
<rect width="1800" height="1000" fill="url(#r)"/>
<g opacity=".22" stroke="#9fd8ff" stroke-width="1.2">
<path d="M0 690 C280 600 380 760 650 630 S1050 470 1320 520 S1640 430 1800 350" fill="none"/>
<path d="M0 750 C220 670 390 810 710 680 S1120 520 1390 575 S1660 510 1800 440" fill="none"/>
<path d="M120 170 L300 260 L470 210 L690 330 L910 240 L1120 360 L1380 280 L1630 420" fill="none"/>
<circle cx="300" cy="260" r="5" fill="#9fd8ff"/><circle cx="690" cy="330" r="5" fill="#9fd8ff"/><circle cx="1120" cy="360" r="5" fill="#9fd8ff"/><circle cx="1380" cy="280" r="5" fill="#9fd8ff"/>
</g>
<g opacity=".13" fill="#d9efff">
<rect x="1120" y="250" width="55" height="320"/><rect x="1190" y="180" width="72" height="390"/><rect x="1280" y="300" width="62" height="270"/><rect x="1365" y="220" width="95" height="350"/><rect x="1485" y="140" width="75" height="430"/><rect x="1585" y="270" width="100" height="300"/>
</g>
<g opacity=".16" stroke="#ffffff" stroke-width="2">
<path d="M940 650 C1080 610 1210 630 1350 590 C1500 545 1630 470 1800 430" fill="none"/>
<path d="M880 690 C1040 645 1230 670 1390 630 C1540 590 1690 510 1800 490" fill="none"/>
</g>
</svg>