<svg xmlns="http://www.w3.org/2000/svg" width="1800" height="1050" viewBox="0 0 1800 1050">
<defs><linearGradient id="bg" x1="0" y1="0" x2="1" y2="1"><stop stop-color="#05090e"/><stop offset=".48" stop-color="#0f1a25"/><stop offset="1" stop-color="#07101a"/></linearGradient><radialGradient id="glow" cx=".78" cy=".2" r=".58"><stop stop-color="#1f7fc6" stop-opacity=".45"/><stop offset=".45" stop-color="#0f4f85" stop-opacity=".14"/><stop offset="1" stop-color="#000" stop-opacity="0"/></radialGradient></defs>
<rect width="1800" height="1050" fill="url(#bg)"/><rect width="1800" height="1050" fill="url(#glow)"/>
<g opacity=".09" stroke="#fff" stroke-width="1"><path d="M0 120H1800M0 240H1800M0 360H1800M0 480H1800M0 600H1800M0 720H1800M0 840H1800M0 960H1800"/><path d="M150 0V1050M300 0V1050M450 0V1050M600 0V1050M750 0V1050M900 0V1050M1050 0V1050M1200 0V1050M1350 0V1050M1500 0V1050M1650 0V1050"/></g>
<g opacity=".36" fill="none" stroke-linecap="round"><path d="M130 660 C360 560 520 690 710 545 C900 405 1065 495 1238 390 C1420 280 1585 325 1710 220" stroke="#7ed3ff" stroke-width="1.4"/><path d="M240 760 C510 650 660 720 880 585 C1070 468 1190 545 1420 430 C1570 355 1670 370 1775 330" stroke="#a7e2ff" stroke-opacity=".65" stroke-width="1.1"/><path d="M210 380 C415 485 520 280 740 405 C960 530 1040 250 1290 365 C1510 466 1580 560 1760 475" stroke="#5fb8ef" stroke-opacity=".62" stroke-width="1.1"/></g>
<g><circle cx="355" cy="570" r="6" fill="#79d0ff"/><circle cx="710" cy="545" r="6" fill="#79d0ff"/><circle cx="1045" cy="498" r="6" fill="#79d0ff"/><circle cx="1238" cy="390" r="6" fill="#79d0ff"/><circle cx="1490" cy="320" r="6" fill="#79d0ff"/><circle cx="1630" cy="380" r="6" fill="#79d0ff"/></g>
<g opacity=".18" fill="#d9f0ff"><rect x="1180" y="350" width="50" height="270"/><rect x="1250" y="270" width="70" height="350"/><rect x="1340" y="410" width="65" height="210"/><rect x="1435" y="320" width="92" height="300"/><rect x="1560" y="230" width="72" height="390"/><rect x="1660" y="388" width="88" height="232"/></g>
<g opacity=".13" stroke="#c9e9ff" stroke-width="2" fill="none"><path d="M1060 710 C1220 650 1390 675 1550 610 C1660 566 1730 510 1800 490"/><path d="M980 760 C1165 708 1375 728 1580 650 C1695 606 1738 595 1800 580"/></g>
</svg>